# xmcd
# 
# Track frame offsets:
#     150
#     11885
#     24655
#     35182
#     47192
#     60005
#     74395
#     87737
#     100207
#     114375
#     127932
#     140325
#     153700
#     166957
#     179617
#     193897
# 
# Disc length: 2776
# 
# Revision: 2
# Processed by: cddbd v1.5.2PL0 Copyright (c) Steve Scherf et al.
# Submitted via: fre:ac v1.0.27
# 
DISCID=e60ad610
DTITLE=Count Basie - Early 40's
DYEAR=0
DGENRE=Jazz
TTITLE0=The World Is Mad (Part1)
TTITLE1=The World Is Mad (Part 2)
TTITLE2=Moten Swing
TTITLE3=I Want A Little Girl
TTITLE4=What's Your Number?
TTITLE5=Love Jumped Out
TTITLE6=Broadway
TTITLE7=Stampede In G Minor
TTITLE8=Rockin' The Blues
TTITLE9=Jump The Blues Away
TTITLE10=The Jitters
TTITLE11=Tuesday At Ten
TTITLE12=Undecided Blues
TTITLE13=I Do Mean You
TTITLE14=9:20 Special
TTITLE15=Feedin' The Bean
EXTD=
EXTT0=
EXTT1=
EXTT2=
EXTT3=
EXTT4=
EXTT5=
EXTT6=
EXTT7=
EXTT8=
EXTT9=
EXTT10=
EXTT11=
EXTT12=
EXTT13=
EXTT14=
EXTT15=
PLAYORDER=
